<?xml version="1.0" encoding="iso-8859-1"?>
<!-- Generator: Adobe Illustrator 19.0.0, SVG Export Plug-In . SVG Version: 6.00 Build 0)  -->
<svg version="1.1" id="Layer_1" xmlns="http://www.w3.org/2000/svg" xmlns:xlink="http://www.w3.org/1999/xlink" x="0px" y="0px"
	 viewBox="0 0 512 512" style="enable-background:new 0 0 512 512;" xml:space="preserve">
<g>
	<g>
		<rect x="212.218" y="466.942" width="87.55" height="15.876"/>
	</g>
</g>
<g>
	<g>
		<rect x="314.363" y="466.942" width="14.592" height="15.876"/>
	</g>
</g>
<g>
	<g>
		<rect x="183.038" y="466.942" width="14.592" height="15.876"/>
	</g>
</g>
<g>
	<g>
		<rect x="139.263" y="277.246" width="14.592" height="15.876"/>
	</g>
</g>
<g>
	<g>
		<rect x="139.263" y="299.134" width="14.592" height="15.876"/>
	</g>
</g>
<g>
	<g>
		<rect x="161.15" y="277.246" width="14.592" height="15.876"/>
	</g>
</g>
<g>
	<g>
		<rect x="336.251" y="415.875" width="14.592" height="15.876"/>
	</g>
</g>
<g>
	<g>
		<rect x="336.251" y="393.976" width="14.592" height="15.876"/>
	</g>
</g>
<g>
	<g>
		<rect x="314.363" y="415.875" width="14.592" height="15.876"/>
	</g>
</g>
<g>
	<g>
		<path d="M467.771,129.327c-0.471-1.336-11.91-33.073-43.824-64.986c-18.708-18.709-40.625-33.614-65.141-44.299
			C328.298,6.743,293.709,0,255.999,0s-72.3,6.743-102.807,20.042c-24.516,10.687-46.432,25.591-65.14,44.299
			C56.139,96.255,44.7,127.993,44.229,129.327l-0.453,1.282v67.665h29.183v21.889h22.372L147.205,512h216.934l45.229-254.607
			l6.639-37.231h23.033v-21.889h29.184v-67.664L467.771,129.327z M350.834,496.124H160.507l-7.556-42.491h205.431L350.834,496.124z
			 M361.202,437.756H150.129l-30.882-173.819H392.08L361.202,437.756z M394.906,248.062H116.425l-4.967-27.899h288.424
			L394.906,248.062z M423.164,204.287H88.835v-27.899h334.33V204.287z M439.04,182.398v-21.888H72.959v21.888H59.651v-48.957
			c2.337-5.838,13.867-32.313,40.153-58.4c17.298-17.167,37.548-30.842,60.185-40.643c28.383-12.29,60.686-18.522,96.011-18.522
			s67.627,6.232,96.01,18.522c22.637,9.803,42.886,23.477,60.185,40.643c26.297,26.098,37.826,52.585,40.153,58.399v48.958H439.04z"
			/>
	</g>
</g>
<g>
	<g>
		<path d="M289.398,326.049c-12.257-21.147-26.204-37.948-26.791-38.653l-6.098-7.316l-6.096,7.318
			c-0.587,0.705-14.526,17.51-26.774,38.659c-17.372,29.998-22.389,53.302-14.911,69.266c6.785,14.485,22.862,21.829,47.783,21.829
			c24.945,0,41.034-7.348,47.819-21.841C311.806,379.344,306.782,356.04,289.398,326.049z M289.952,388.581
			c-3.945,8.425-15.196,12.697-33.442,12.697c-18.22,0-29.459-4.267-33.405-12.684c-4.988-10.642,0.043-29.963,14.169-54.402
			c6.739-11.66,14.177-22.109,19.241-28.834c5.035,6.681,12.418,17.044,19.148,28.654
			C289.873,358.529,294.948,377.909,289.952,388.581z"/>
	</g>
</g>
<g>
	<g>
		<polygon points="255.999,357.501 255.999,372.093 241.407,372.093 241.407,387.969 255.999,387.969 255.999,373.377 
			270.592,373.377 270.592,357.501 		"/>
	</g>
</g>
<g>
</g>
<g>
</g>
<g>
</g>
<g>
</g>
<g>
</g>
<g>
</g>
<g>
</g>
<g>
</g>
<g>
</g>
<g>
</g>
<g>
</g>
<g>
</g>
<g>
</g>
<g>
</g>
<g>
</g>
</svg>
