<?xml version="1.0" encoding="iso-8859-1"?>
<!-- Generator: Adobe Illustrator 17.1.0, SVG Export Plug-In . SVG Version: 6.00 Build 0)  -->
<!DOCTYPE svg PUBLIC "-//W3C//DTD SVG 1.1//EN" "http://www.w3.org/Graphics/SVG/1.1/DTD/svg11.dtd">
<svg version="1.1" id="Capa_1" xmlns="http://www.w3.org/2000/svg" xmlns:xlink="http://www.w3.org/1999/xlink" x="0px" y="0px"
	 viewBox="0 0 475.609 475.609" style="enable-background:new 0 0 475.609 475.609;" xml:space="preserve">
<path d="M474.709,38.208c0-4.142-3.357-7.5-7.5-7.5l-14.87,0V7.5c0-4.142-3.357-7.5-7.5-7.5H30.77c-4.143,0-7.5,3.358-7.5,7.5
	v23.207l-14.87,0c-4.143,0-7.5,3.358-7.5,7.5c0,48.198,15.972,93.263,45.161,128.018v271.896c0,20.671,16.816,37.488,37.487,37.488
	H392.06c20.671,0,37.487-16.817,37.487-37.488V166.226C458.737,131.47,474.709,86.406,474.709,38.208z M459.574,45.708
	c-1.308,36.36-12.11,69.24-30.026,96.14V76.415h15.291c4.143,0,7.5-3.358,7.5-7.5V45.707L459.574,45.708z M38.27,15h399.068v46.415
	h-32.721c-4.143,0-7.5,3.358-7.5,7.5s3.357,7.5,7.5,7.5h9.93v84.739c-28.691,31.806-69.109,51.691-115.505,53.631v-11.885
	c0-4.142-3.357-7.5-7.5-7.5H184.066c-4.143,0-7.5,3.358-7.5,7.5v11.885c-46.396-1.94-86.814-21.825-115.505-53.631V76.415h268.866
	c4.143,0,7.5-3.358,7.5-7.5s-3.357-7.5-7.5-7.5H38.27V15z M191.566,210.399h92.477v24.104h-92.477V210.399z M16.035,45.708l7.235,0
	v23.207c0,4.142,3.357,7.5,7.5,7.5h15.291v65.433C28.145,114.947,17.343,82.068,16.035,45.708z M392.06,460.609H83.549
	c-12.399,0-22.487-10.088-22.487-22.488V182.056c31.306,29.302,71.692,46.021,115.505,47.735v12.212c0,4.142,3.357,7.5,7.5,7.5
	h107.477c4.143,0,7.5-3.358,7.5-7.5V229.79c43.813-1.714,84.199-18.433,115.505-47.735v256.066
	C414.548,450.521,404.46,460.609,392.06,460.609z"/>
<g>
</g>
<g>
</g>
<g>
</g>
<g>
</g>
<g>
</g>
<g>
</g>
<g>
</g>
<g>
</g>
<g>
</g>
<g>
</g>
<g>
</g>
<g>
</g>
<g>
</g>
<g>
</g>
<g>
</g>
</svg>
