<svg xmlns="http://www.w3.org/2000/svg" xmlns:xlink="http://www.w3.org/1999/xlink" version="1.1" style="" xml:space="preserve" width="512" height="512"><rect id="backgroundrect" width="100%" height="100%" x="0" y="0" fill="none" stroke="none"/>
<g class="currentLayer" style=""><title>Layer 1</title><path fill="#4a90d6" fill-opacity="1" stroke="#222222" stroke-opacity="1" stroke-width="2" stroke-dasharray="none" stroke-linejoin="round" stroke-linecap="butt" stroke-dashoffset="" fill-rule="nonzero" opacity="1" marker-start="" marker-mid="" marker-end="" id="svg_53" d="M 118.92134611131924 263.17752875388385 C 118.92134611131924 263.17752875388385 160.49438048739455 495.7618021551701 160.1123595505618 495.50561797752806 C 160.49438048739455 495.7618021551701 350.38202398892776 496.3235999170089 350 496.0674157303371 C 350.38202398892776 496.3235999170089 400.3820247925858 219.3573033304531 400 219.1011235955056 C 400.3820247925858 219.3573033304531 110.49437968373638 219.3573033304531 110.49437968373638 219.3573033304531" style="color: rgb(0, 0, 0);" class=""/><g id="svg_1">
	<g id="svg_2">
		<rect x="212.21800231933594" y="466.9419860839844" width="87.55000305175781" height="15.87600040435791" id="svg_3"/>
	</g>
</g><g id="svg_4">
	<g id="svg_5">
		<rect x="314.3630065917969" y="466.9419860839844" width="14.592000007629395" height="15.87600040435791" id="svg_6"/>
	</g>
</g><g id="svg_7">
	<g id="svg_8">
		<rect x="183.03799438476562" y="466.9419860839844" width="14.592000007629395" height="15.87600040435791" id="svg_9"/>
	</g>
</g><g id="svg_10">
	<g id="svg_11">
		<rect x="139.26300048828125" y="277.2460021972656" width="14.592000007629395" height="15.87600040435791" id="svg_12"/>
	</g>
</g><g id="svg_13">
	<g id="svg_14">
		<rect x="139.26300048828125" y="299.1340026855469" width="14.592000007629395" height="15.87600040435791" id="svg_15"/>
	</g>
</g><g id="svg_16">
	<g id="svg_17">
		<rect x="161.14999389648438" y="277.2460021972656" width="14.592000007629395" height="15.87600040435791" id="svg_18"/>
	</g>
</g><g id="svg_19">
	<g id="svg_20">
		<rect x="336.2510070800781" y="415.875" width="14.592000007629395" height="15.87600040435791" id="svg_21"/>
	</g>
</g><g id="svg_22">
	<g id="svg_23">
		<rect x="336.2510070800781" y="393.97601318359375" width="14.592000007629395" height="15.87600040435791" id="svg_24"/>
	</g>
</g><g id="svg_25">
	<g id="svg_26">
		<rect x="314.3630065917969" y="415.875" width="14.592000007629395" height="15.87600040435791" id="svg_27"/>
	</g>
</g><g id="svg_28">
	<g id="svg_29">
		<path d="M467.771,129.327c-0.471-1.336-11.91-33.073-43.824-64.986c-18.708-18.709-40.625-33.614-65.141-44.299    C328.298,6.743,293.709,0,255.999,0s-72.3,6.743-102.807,20.042c-24.516,10.687-46.432,25.591-65.14,44.299    C56.139,96.255,44.7,127.993,44.229,129.327l-0.453,1.282v67.665h29.183v21.889h22.372L147.205,512h216.934l45.229-254.607    l6.639-37.231h23.033v-21.889h29.184v-67.664L467.771,129.327z M350.834,496.124H160.507l-7.556-42.491h205.431L350.834,496.124z     M361.202,437.756H150.129l-30.882-173.819H392.08L361.202,437.756z M394.906,248.062H116.425l-4.967-27.899h288.424    L394.906,248.062z M423.164,204.287H88.835v-27.899h334.33V204.287z M439.04,182.398v-21.888H72.959v21.888H59.651v-48.957    c2.337-5.838,13.867-32.313,40.153-58.4c17.298-17.167,37.548-30.842,60.185-40.643c28.383-12.29,60.686-18.522,96.011-18.522    s67.627,6.232,96.01,18.522c22.637,9.803,42.886,23.477,60.185,40.643c26.297,26.098,37.826,52.585,40.153,58.399v48.958H439.04z" id="svg_30"/>
	</g>
</g><g id="svg_31">
	<g id="svg_32">
		<path d="M289.398,326.049c-12.257-21.147-26.204-37.948-26.791-38.653l-6.098-7.316l-6.096,7.318    c-0.587,0.705-14.526,17.51-26.774,38.659c-17.372,29.998-22.389,53.302-14.911,69.266c6.785,14.485,22.862,21.829,47.783,21.829    c24.945,0,41.034-7.348,47.819-21.841C311.806,379.344,306.782,356.04,289.398,326.049z M289.952,388.581    c-3.945,8.425-15.196,12.697-33.442,12.697c-18.22,0-29.459-4.267-33.405-12.684c-4.988-10.642,0.043-29.963,14.169-54.402    c6.739-11.66,14.177-22.109,19.241-28.834c5.035,6.681,12.418,17.044,19.148,28.654    C289.873,358.529,294.948,377.909,289.952,388.581z" id="svg_33"/>
	</g>
</g><g id="svg_34">
	<g id="svg_35">
		<polygon points="255.999,357.501 255.999,372.093 241.407,372.093 241.407,387.969 255.999,387.969 255.999,373.377     270.592,373.377 270.592,357.501   " id="svg_36"/>
	</g>
</g><g id="svg_37">
</g><g id="svg_38">
</g><g id="svg_39">
</g><g id="svg_40">
</g><g id="svg_41">
</g><g id="svg_42">
</g><g id="svg_43">
</g><g id="svg_44">
</g><g id="svg_45">
</g><g id="svg_46">
</g><g id="svg_47">
</g><g id="svg_48">
</g><g id="svg_49">
</g><g id="svg_50">
</g><g id="svg_51">
</g><path fill="#4a90d6" fill-opacity="1" stroke="#222222" stroke-opacity="1" stroke-width="2" stroke-dasharray="none" stroke-linejoin="round" stroke-linecap="butt" stroke-dashoffset="" fill-rule="nonzero" opacity="1" marker-start="" marker-mid="" marker-end="" id="svg_52" d="M112.17977296925295,220.48089885413083 " style="color: rgb(0, 0, 0);"/></g></svg>